<svg xmlns="http://www.w3.org/2000/svg" preserveAspectRatio="none" viewBox="0 0 1 1" width="91.1914950852636" height="203.33553248395782">
<rect x="0" y="0" width="100%" height="100%" fill="#222222" /><g transform="matrix(0.010965934916024843,-0,-0,0.004917979596502127,-0.37591200395463337,-0.17605582976139295)"><defs></defs><g transform="matrix(
1,0,0,1,0,0)" style="mix-blend-mode: normal; opacity: 1"><g transform="matrix(
150,0,-0,250,0,0)" style="mix-blend-mode: normal; opacity: 1"><g transform="matrix(
0.006666666666666666,-0,-0,0.004,-0,-0)"><path d="M0,0L0,250L150,250L150,0Z"  fill="#FFFFFF" /></g></g></g><defs><linearGradient id="5928939784859010972" x1="34.27997766112054" x2="125.47147274638414" y1="83.10096539850547" y2="83.10096539850547" gradientTransform="matrix(0.010965934916024843,-0,0,0.010570252544691454,-0.37591200395463337,-0.37839819096986865)"><stop offset="0" stop-color="#FF0000FF" /><stop offset="0.25" stop-color="#BF0000FF" /><stop offset="0.5" stop-color="#7F0000FF" /><stop offset="1" stop-color="#3F0000FF" /></linearGradient></defs><g transform="matrix(
1,0,0,1,0,0)" style="mix-blend-mode: normal; opacity: 1"><g transform="matrix(
0.8775792480362752,0,0,0.9143857103453392,8.065668930451764,14.658536687664167)" style="mix-blend-mode: normal; opacity: 1"><g transform="matrix(
1.1394982302027548,-0,-0,1.0936303888895271,-9.190815471651131,-16.031021178281563)"><path d="M74.32290215719051,124.99999999999982C101.58590325576141,153.82640203124984 82.50205097468206,185.10244627214976 80.75407635058257,185.10244627214976 C63.27433010958753,203.31530877886195 74.32290215719057,239.13393837539567 74.32290215719057,239.13393837539567 C74.32290215719051,239.13393837539567 74.32290215719054,239.13393837539567 74.32290215719054,239.13393837539567 " fill="none" stroke="#000000" stroke-width="5" stroke-dasharray="none" stroke-dashoffset="0" stroke-linecap="round" stroke-linejoin="miter" stroke-miterlimit="4" /></g></g><g transform="matrix(
91.1914950852636,0,-0.00000000000000038972347484125206,94.98844204873676,34.27997766112054,35.798405891437866)" style="mix-blend-mode: normal; opacity: 1"><g transform="matrix(
0.010965934916024841,-0,0.00000000000000000004499160285378162,0.010527596604720803,-0.3759120039546333,-0.3768711763171185)"><path d="M79.87572520375234,35.798405891437866C105.03476462923146,35.798405891437866 125.47147274638414,57.086038722087764 125.47147274638414,83.29262691580624 C125.47147274638414,109.49921510952473 104.68705807309873,130.40352490557302 79.5280186476196,130.40352490557302 C54.368979222140496,130.40352490557302 34.27997766112054,109.49921510952473 34.27997766112054,83.29262691580624 C34.27997766112054,57.086038722087764 54.71668577827323,35.798405891437866 79.87572520375234,35.798405891437866 Z" fill="url('#5928939784859010972')" stroke="#000000" stroke-width="2.999999999999972" stroke-dasharray="none" stroke-dashoffset="0" stroke-linecap="butt" stroke-linejoin="miter" stroke-miterlimit="4" /></g></g></g></g></svg>