<svg xmlns="http://www.w3.org/2000/svg" preserveAspectRatio="none" viewBox="0 0 1 1" width="91.19149508526357" height="203.33553248395782">
<rect x="0" y="0" width="100%" height="100%" fill="#222222" /><g transform="matrix(0.010965934916024848,-0,-0,0.0049179795965021275,-0.3759120039546328,-0.17605582976139295)"><defs></defs><g transform="matrix(
1,0,0,1,0,0)" style="mix-blend-mode: normal; opacity: 1"><g transform="matrix(
150,0,-0,250,0,0)" style="mix-blend-mode: normal; opacity: 1"><g transform="matrix(
0.006666666666666666,-0,-0,0.004,-0,-0)"><path d="M0,0L0,250L150,250L150,0Z"  fill="#FFFFFF" /></g></g></g><defs><linearGradient id="5845107792004732315" x1="34.27997766112047" x2="125.47147274638404" y1="83.10096539850544" y2="83.10096539850544" gradientTransform="matrix(0.010965934916024848,-0,0,0.010570252544691454,-0.3759120039546328,-0.37839819096986854)"><stop offset="0" stop-color="#FFF500FF" /><stop offset="0.25" stop-color="#BFB700FF" /><stop offset="0.5" stop-color="#7F7A00FF" /><stop offset="1" stop-color="#3F3D00FF" /></linearGradient></defs><g transform="matrix(
1,0,0,1,0,0)" style="mix-blend-mode: normal; opacity: 1"><g transform="matrix(
0.8775792480362752,0,0,0.9143857103453392,8.065668930451764,14.658536687664167)" style="mix-blend-mode: normal; opacity: 1"><g transform="matrix(
1.1394982302027548,-0,-0,1.0936303888895271,-9.190815471651131,-16.031021178281563)"><path d="M74.32290215719051,124.99999999999982C101.58590325576141,153.82640203124984 82.50205097468206,185.10244627214976 80.75407635058257,185.10244627214976 C63.27433010958753,203.31530877886195 74.32290215719057,239.13393837539567 74.32290215719057,239.13393837539567 C74.32290215719051,239.13393837539567 74.32290215719054,239.13393837539567 74.32290215719054,239.13393837539567 " fill="none" stroke="#000000" stroke-width="5" stroke-dasharray="none" stroke-dashoffset="0" stroke-linecap="round" stroke-linejoin="miter" stroke-miterlimit="4" /></g></g><g transform="matrix(
91.19149508526358,0,-0.000000000000000389723474841252,94.98844204873674,34.279977661120476,35.79840589143786)" style="mix-blend-mode: normal; opacity: 1"><g transform="matrix(
0.010965934916024845,-0,0.00000000000000000004499160285378164,0.010527596604720807,-0.3759120039546327,-0.37687117631711853)"><path d="M79.87572520375227,35.79840589143786C105.03476462923138,35.79840589143786 125.47147274638405,57.08603872208775 125.47147274638405,83.29262691580624 C125.47147274638405,109.49921510952473 104.68705807309865,130.40352490557302 79.52801864761955,130.40352490557302 C54.368979222140425,130.40352490557302 34.279977661120476,109.49921510952473 34.279977661120476,83.29262691580624 C34.279977661120476,57.08603872208775 54.71668577827316,35.79840589143786 79.87572520375227,35.79840589143786 Z" fill="url('#5845107792004732315')" stroke="#000000" stroke-width="2.999999999999972" stroke-dasharray="none" stroke-dashoffset="0" stroke-linecap="butt" stroke-linejoin="miter" stroke-miterlimit="4" /></g></g></g></g></svg>